<?xml version="1.0" encoding="UTF-8" standalone="no"?>
<!DOCTYPE svg PUBLIC "-//W3C//DTD SVG 1.1//EN" "http://www.w3.org/Graphics/SVG/1.1/DTD/svg11.dtd">
<svg width="100%" height="100%" viewBox="0 0 950 390" version="1.1" xmlns="http://www.w3.org/2000/svg" xmlns:xlink="http://www.w3.org/1999/xlink" xml:space="preserve" xmlns:serif="http://www.serif.com/" style="fill-rule:evenodd;clip-rule:evenodd;stroke-linejoin:round;stroke-miterlimit:2;">
    <g transform="matrix(1,0,0,1,-65.274,-281.814)">
        <g transform="matrix(1.06712,0,0,1.08618,-57.942,-623.796)">
            <rect x="115.466" y="833.759" width="889.736" height="358.934" style="fill:rgb(186,186,186);"/>
            <clipPath id="_clip1">
                <rect x="115.466" y="833.759" width="889.736" height="358.934"/>
            </clipPath>
            <g clip-path="url(#_clip1)">
                <g transform="matrix(3.67614,0,0,1.76154,-253.02,-645.756)">
                    <g>
                        <g transform="matrix(0.751451,0,0,1.44947,-3.54532,-504.795)">
                            <rect x="138.11" y="927.711" width="322.083" height="50.94" style="fill:rgb(142,202,230);"/>
                        </g>
                        <g transform="matrix(0.751451,0,0,1.04162,-3.54532,-52.5865)">
                            <rect x="138.11" y="927.711" width="322.083" height="50.94" style="fill:rgb(33,158,188);"/>
                        </g>
                        <g transform="matrix(0.751451,0,0,0.850176,-3.54532,178.077)">
                            <rect x="138.11" y="927.711" width="322.083" height="50.94" style="fill:rgb(18,103,130);"/>
                        </g>
                        <g transform="matrix(0.751451,0,0,0.658734,-3.54532,398.988)">
                            <rect x="138.11" y="927.711" width="322.083" height="50.94" style="fill:rgb(2,48,71);"/>
                        </g>
                    </g>
                </g>
                <g transform="matrix(1.12628,0,0,1.10651,168.197,-35.5951)">
                    <g transform="matrix(1.15251,0,0,1.15251,-89.5798,-214.08)">
                        <circle cx="299.484" cy="903.573" r="38.205" style="fill:rgb(251,133,0);"/>
                    </g>
                    <g transform="matrix(0.932825,0,0,0.932825,-29.4375,-21.7741)">
                        <circle cx="299.484" cy="903.573" r="38.205" style="fill:rgb(255,183,3);"/>
                    </g>
                </g>
                <g transform="matrix(0.937105,0,0,0.92066,-375.342,538.667)">
                    <g transform="matrix(3.12875,-7.53713,7.08011,2.93903,-2353.06,7634.52)">
                        <path d="M957.802,29.533C957.802,29.533 960.093,30.183 960.093,32.714C960.093,34.06 959.066,35.153 957.802,35.153C956.537,35.153 955.511,34.06 955.511,32.714C955.511,30.183 957.802,29.533 957.802,29.533Z" style="fill:rgb(109,212,66);"/>
                    </g>
                    <g transform="matrix(0.961441,0.675253,-0.638055,0.908478,887.128,-222.502)">
                        <ellipse cx="350.436" cy="540.824" rx="9.627" ry="8.339" style="fill:rgb(86,94,0);"/>
                    </g>
                    <g transform="matrix(1,0,0,1,531.594,-36.0423)">
                        <clipPath id="_clip2">
                            <path d="M352.703,533.924C357.812,537.512 359.575,543.819 356.638,548.001C353.702,552.182 347.17,552.664 342.061,549.076C336.953,545.488 335.189,539.18 338.126,534.999C341.063,530.818 347.595,530.336 352.703,533.924Z"/>
                        </clipPath>
                        <g clip-path="url(#_clip2)">
                            <rect x="335.595" y="540.777" width="23.694" height="11.465" style="fill:rgb(142,202,230);"/>
                        </g>
                    </g>
                    <g transform="matrix(2.09369,1.51432,-0.628434,0.868869,425.9,-543.231)">
                        <rect x="381.601" y="522.573" width="1.741" height="22.125" style="fill:rgb(255,85,85);"/>
                    </g>
                    <g transform="matrix(1.09446,2.3407,-0.60663,0.283647,809.235,-559.033)">
                        <rect x="381.601" y="522.573" width="1.741" height="22.125" style="fill:rgb(255,85,85);"/>
                    </g>
                </g>
                <g transform="matrix(5.04198,5.20612,-5.02582,4.69803,-4259.59,-4132.68)">
                    <path d="M957.802,29.533C957.802,29.533 960.093,30.188 960.093,32.737C960.093,34.07 959.066,35.153 957.802,35.153C956.537,35.153 955.511,34.07 955.511,32.737C955.511,30.188 957.802,29.533 957.802,29.533Z" style="fill:rgb(189,187,13);"/>
                </g>
                <g transform="matrix(1.60419,5.78062e-17,-3.92258e-17,1.57603,-667.741,844.254)">
                    <g transform="matrix(1,1.95617e-16,-1.95617e-16,1,475.288,-939.818)">
                        <path d="M440.623,1088.39C440.84,1046.27 473.9,1012.13 514.589,1012.13C555.279,1012.13 588.339,1046.27 588.556,1088.39L440.623,1088.39Z" style="fill:rgb(0,130,13);"/>
                        <clipPath id="_clip3">
                            <path d="M440.623,1088.39C440.84,1046.27 473.9,1012.13 514.589,1012.13C555.279,1012.13 588.339,1046.27 588.556,1088.39L440.623,1088.39Z"/>
                        </clipPath>
                        <g clip-path="url(#_clip3)">
                            <g transform="matrix(1.03666,0,0,1.09308,-50.8749,-157.138)">
                                <path d="M514.971,1125.19L499.629,1139.47L476.56,1118L499.629,1096.53L514.971,1110.81L530.312,1096.53L544.847,1110.06L559.383,1096.53L575.343,1111.38L591.304,1096.53L614.373,1118L591.304,1139.47L575.343,1124.61L559.383,1139.47L544.847,1125.94L530.312,1139.47L514.971,1125.19Z" style="fill:rgb(209,209,135);"/>
                            </g>
                            <g transform="matrix(1.02983,0,0,1.06787,-39.2072,-77.1273)">
                                <rect x="452.013" y="1069.47" width="188.823" height="52.813" style="fill:rgb(209,209,135);"/>
                            </g>
                            <g transform="matrix(1.15392,0,0,1.36014,-114.833,-435.531)">
                                <path d="M514.971,1125.19L499.629,1139.47L476.56,1118L499.629,1096.53L514.971,1110.81L530.312,1096.53L544.847,1110.06L559.383,1096.53L575.343,1111.38L591.304,1096.53L614.373,1118L591.304,1139.47L575.343,1124.61L559.383,1139.47L544.847,1125.94L530.312,1139.47L514.971,1125.19Z" style="fill:rgb(148,94,0);"/>
                                <clipPath id="_clip4">
                                    <path d="M514.971,1125.19L499.629,1139.47L476.56,1118L499.629,1096.53L514.971,1110.81L530.312,1096.53L544.847,1110.06L559.383,1096.53L575.343,1111.38L591.304,1096.53L614.373,1118L591.304,1139.47L575.343,1124.61L559.383,1139.47L544.847,1125.94L530.312,1139.47L514.971,1125.19Z"/>
                                </clipPath>
                                <g clip-path="url(#_clip4)">
                                    <g transform="matrix(1.67554,0,0,0.794528,-1151.5,1009.24)">
                                        <rect x="974.531" y="131.581" width="76.513" height="25.603" style="fill:rgb(148,94,0);"/>
                                    </g>
                                </g>
                            </g>
                        </g>
                    </g>
                    <g transform="matrix(1.12727,-0.439311,0.847544,2.17479,-421.975,-1880.87)">
                        <clipPath id="_clip5">
                            <rect x="471.093" y="969.447" width="24.416" height="29.884"/>
                        </clipPath>
                        <g clip-path="url(#_clip5)">
                            <path d="M483.302,969.447C481.28,974.309 479.639,981.971 479.639,990.283C479.639,998.594 481.28,1006.26 483.302,1011.12C476.564,1011.12 471.093,1001.78 471.093,990.283C471.093,978.783 476.564,969.447 483.302,969.447Z" style="fill:rgb(148,94,0);"/>
                        </g>
                    </g>
                    <g transform="matrix(0.416805,0.908996,-0.908996,0.416805,1625.2,-819.291)">
                        <path d="M483.302,969.447C481.28,974.309 479.639,981.971 479.639,990.283C479.639,998.594 481.28,1006.26 483.302,1011.12C476.564,1011.12 471.093,1001.78 471.093,990.283C471.093,978.783 476.564,969.447 483.302,969.447Z" style="fill:rgb(0,130,13);"/>
                    </g>
                    <g transform="matrix(-0.322155,0.946687,-0.946687,-0.322155,2018.85,-121.169)">
                        <path d="M483.302,969.447C481.28,974.309 479.639,981.971 479.639,990.283C479.639,998.594 481.28,1006.26 483.302,1011.12C476.564,1011.12 471.093,1001.78 471.093,990.283C471.093,978.783 476.564,969.447 483.302,969.447Z" style="fill:rgb(0,130,13);"/>
                    </g>
                    <g transform="matrix(0.706835,0.707379,-0.707379,0.706835,1319.05,-1032.47)">
                        <path d="M483.302,969.447C481.28,974.309 479.639,981.971 479.639,990.283C479.639,998.594 481.28,1006.26 483.302,1011.12C476.564,1011.12 471.093,1001.78 471.093,990.283C471.093,978.783 476.564,969.447 483.302,969.447Z" style="fill:rgb(0,130,13);"/>
                    </g>
                    <g transform="matrix(-0.112928,0.993603,-0.993603,-0.112928,2004.65,-341.93)">
                        <path d="M483.302,969.447C481.28,974.309 479.639,981.971 479.639,990.283C479.639,998.594 481.28,1006.26 483.302,1011.12C476.564,1011.12 471.093,1001.78 471.093,990.283C471.093,978.783 476.564,969.447 483.302,969.447Z" style="fill:rgb(0,130,13);"/>
                    </g>
                    <g transform="matrix(0.999999,0.00110002,-0.00110002,0.999999,465.394,-989.593)">
                        <path d="M483.302,969.447C481.28,974.309 479.639,981.971 479.639,990.283C479.639,998.594 481.28,1006.26 483.302,1011.12C476.564,1011.12 471.093,1001.78 471.093,990.283C471.093,978.783 476.564,969.447 483.302,969.447Z" style="fill:rgb(0,130,13);"/>
                    </g>
                </g>
                <g transform="matrix(-6.5627,0,0,6.44753,4433.99,-1190.39)">
                    <g transform="matrix(-0.00418776,0.0380259,-1.46391,-0.161219,1186.27,396.741)">
                        <path d="M626.137,440.808L447.992,440.808L537.065,393.927L567.529,393.927L626.137,440.808Z" style="fill:white;"/>
                    </g>
                    <g transform="matrix(-0.000268154,0.0387649,-1.37202,-0.00949089,1148.75,336.649)">
                        <path d="M626.137,440.808L447.992,440.808L540.61,393.927L567.529,393.927L626.137,440.808Z" style="fill:rgb(142,202,230);"/>
                    </g>
                    <g transform="matrix(0.00304417,0.032387,-1.22521,0.115162,1089.05,291.104)">
                        <path d="M626.137,440.808L447.992,440.808L539.97,393.927L569.405,393.927L626.137,440.808Z" style="fill:rgb(33,158,188);"/>
                    </g>
                </g>
                <g transform="matrix(-1.78516,0,0,1.75384,619.168,-610.725)">
                    <g transform="matrix(1.49843,0,0,1.49843,-100.876,-451.227)">
                        <g transform="matrix(0.824605,-0.057662,0.0324703,0.464348,50.0904,468.956)">
                            <path d="M91.993,939.645L73.536,921.098L91.993,921.098L91.993,921.095L170.272,921.095L189.653,988.59L91.993,988.59L91.993,939.645Z" style="fill:white;"/>
                        </g>
                        <g transform="matrix(-1.68863,0.116684,-0.0276391,-0.399987,461.157,1298.82)">
                            <path d="M189.653,988.59L91.993,988.59L116.408,921.095L179.144,921.095L189.653,988.59Z" style="fill:white;"/>
                        </g>
                    </g>
                    <g transform="matrix(2.22712,-0.155735,0.10654,1.52359,-315.388,-454.517)">
                        <path d="M210.902,921.095L176.297,921.095L179.073,903.058L204.61,903.058L210.902,921.095Z" style="fill:rgb(142,202,230);"/>
                    </g>
                </g>
                <g transform="matrix(0.412028,0,0,0.404797,-132.342,-71.2438)">
                    <path d="M862.539,2698.83C931.946,2698.83 988.296,2755.18 988.296,2824.59C988.296,2893.99 931.946,2950.35 862.539,2950.35C793.132,2950.35 736.782,2893.99 736.782,2824.59C736.782,2755.18 793.132,2698.83 862.539,2698.83ZM862.539,2777.11C836.337,2777.11 815.065,2798.39 815.065,2824.59C815.065,2850.79 836.337,2872.06 862.539,2872.06C888.741,2872.06 910.013,2850.79 910.013,2824.59C910.013,2798.39 888.741,2777.11 862.539,2777.11Z" style="fill:white;"/>
                    <clipPath id="_clip6">
                        <path d="M862.539,2698.83C931.946,2698.83 988.296,2755.18 988.296,2824.59C988.296,2893.99 931.946,2950.35 862.539,2950.35C793.132,2950.35 736.782,2893.99 736.782,2824.59C736.782,2755.18 793.132,2698.83 862.539,2698.83ZM862.539,2777.11C836.337,2777.11 815.065,2798.39 815.065,2824.59C815.065,2850.79 836.337,2872.06 862.539,2872.06C888.741,2872.06 910.013,2850.79 910.013,2824.59C910.013,2798.39 888.741,2777.11 862.539,2777.11Z"/>
                    </clipPath>
                    <g clip-path="url(#_clip6)">
                        <g transform="matrix(0.780816,0,0,0.780816,222.955,632.201)">
                            <g transform="matrix(1.28795,0,0,1.28795,168.448,1352.72)">
                                <path d="M605.788,1230.37L505.203,1272.03L505.203,1167.95C515.737,1167.95 525.28,1163.68 532.19,1156.77L605.788,1230.37Z" style="fill:white;"/>
                            </g>
                            <g transform="matrix(1.28795,0,0,1.28795,168.448,1352.72)">
                                <path d="M404.618,1029.2L505.203,987.534L505.203,1091.61C494.669,1091.61 485.125,1095.88 478.216,1102.8L404.618,1029.2Z" style="fill:white;"/>
                            </g>
                            <g transform="matrix(1.28795,0,0,1.28795,168.448,1352.72)">
                                <path d="M404.618,1230.37L362.954,1129.78L467.03,1129.78C467.03,1140.32 471.306,1149.86 478.216,1156.77L404.618,1230.37Z" style="fill:white;"/>
                            </g>
                            <g transform="matrix(1.28795,0,0,1.28795,168.448,1352.72)">
                                <path d="M605.788,1029.2L647.451,1129.78L543.375,1129.78C543.375,1119.25 539.099,1109.7 532.19,1102.8L605.788,1029.2Z" style="fill:white;"/>
                            </g>
                            <path d="M635.914,2807.81L689.574,2678.27L784.364,2773.06C775.465,2781.95 769.958,2794.25 769.958,2807.81L635.914,2807.81Z" style="fill:rgb(255,0,0);"/>
                            <path d="M819.122,2624.61L948.67,2678.27L853.88,2773.06C844.981,2764.16 832.689,2758.65 819.122,2758.65L819.122,2624.61Z" style="fill:rgb(255,0,0);"/>
                            <path d="M1002.33,2807.81L948.67,2937.36L853.88,2842.57C862.779,2833.67 868.287,2821.38 868.287,2807.81L1002.33,2807.81Z" style="fill:rgb(255,0,0);"/>
                            <path d="M819.122,2991.02L689.574,2937.36L784.364,2842.57C793.264,2851.47 805.555,2856.98 819.122,2856.98L819.122,2991.02Z" style="fill:rgb(255,0,0);"/>
                        </g>
                    </g>
                </g>
            </g>
        </g>
    </g>
</svg>
