<?xml version="1.0" encoding="UTF-8" standalone="no"?><!DOCTYPE svg PUBLIC "-//W3C//DTD SVG 1.1//EN" "http://www.w3.org/Graphics/SVG/1.1/DTD/svg11.dtd"><svg width="100%" height="100%" viewBox="0 0 374 398" version="1.1" xmlns="http://www.w3.org/2000/svg" xmlns:xlink="http://www.w3.org/1999/xlink" xml:space="preserve" xmlns:serif="http://www.serif.com/" style="fill-rule:evenodd;clip-rule:evenodd;stroke-linejoin:round;stroke-miterlimit:2;"><g><path d="M23.59,397.734c0.512,-99.622 78.692,-180.337 174.914,-180.337c96.222,-0 174.402,80.715 174.914,180.337l-349.828,-0Z" style="fill:#00820d;"/><clipPath id="_clip1"><path d="M23.59,397.734c0.512,-99.622 78.692,-180.337 174.914,-180.337c96.222,-0 174.402,80.715 174.914,180.337l-349.828,-0Z"/></clipPath><g clip-path="url(#_clip1)"><path d="M123.744,360.828l-37.609,36.906l-56.555,-55.496l56.555,-55.496l37.609,36.905l37.61,-36.905l35.633,34.965l35.632,-34.965l39.127,38.394l39.127,-38.394l56.554,55.496l-56.554,55.496l-39.127,-38.395l-39.127,38.395l-35.632,-34.966l-35.633,34.966l-37.61,-36.906Z" style="fill:#d1d187;"/><rect x="-10.305" y="342.238" width="459.845" height="133.368" style="fill:#d1d187;"/><path d="M115.289,413.089l-41.864,45.922l-62.951,-69.055l62.951,-69.054l41.864,45.922l41.863,-45.922l39.663,43.508l39.663,-43.508l43.552,47.775l43.553,-47.775l62.951,69.054l-62.951,69.055l-43.553,-47.775l-43.552,47.775l-39.663,-43.508l-39.663,43.508l-41.863,-45.922Z" style="fill:#945e00;"/><clipPath id="_clip2"><path d="M115.289,413.089l-41.864,45.922l-62.951,-69.055l62.951,-69.054l41.864,45.922l41.863,-45.922l39.663,43.508l39.663,-43.508l43.552,47.775l43.553,-47.775l62.951,69.054l-62.951,69.055l-43.553,-47.775l-43.552,47.775l-39.663,-43.508l-39.663,43.508l-41.863,-45.922Z"/></clipPath><g clip-path="url(#_clip2)"><rect x="23.59" y="376.398" width="349.828" height="65.43" style="fill:#945e00;"/></g></g><clipPath id="_clip3"><path d="M123.706,69.541l59.894,153.69l-65.087,25.366l-59.895,-153.691l65.088,-25.365Z"/></clipPath><g clip-path="url(#_clip3)"><path d="M91.162,82.224c4.355,27.103 15.338,68.216 31.997,110.962c16.658,42.745 36.391,80.448 51.523,103.352c-17.961,7 -51.256,-35.333 -74.304,-94.474c-23.048,-59.142 -27.178,-112.84 -9.216,-119.84Z" style="fill:#945e00;"/></g><path d="M93.365,103.373c-12.443,0.447 -30.532,4.471 -48.398,12.664c-17.866,8.192 -32.72,19.272 -41.178,28.41c-6.642,-14.484 8.035,-35.445 32.755,-46.78c24.719,-11.335 50.18,-8.778 56.821,5.706Z" style="fill:#00820d;"/><path d="M93.291,103.267c-9.344,-8.229 -25.248,-17.741 -43.855,-24.073c-18.608,-6.332 -37.012,-8.495 -49.436,-7.674c5.133,-15.084 30.202,-20.218 55.946,-11.457c25.744,8.761 42.478,28.12 37.345,43.204Z" style="fill:#00820d;"/><path d="M163.074,33.717c-11.511,4.745 -27.072,14.808 -40.976,28.701c-13.903,13.893 -23.978,29.446 -28.732,40.954c-11.262,-11.271 -4.788,-36.028 14.448,-55.249c19.237,-19.222 43.998,-25.677 55.26,-14.406Z" style="fill:#00820d;"/><path d="M191.279,114.495c-10.884,-6.048 -28.45,-11.95 -47.979,-14.17c-19.529,-2.219 -37.972,-0.41 -49.935,3.042c1.799,-15.832 25.197,-26.192 52.217,-23.121c27.02,3.071 47.496,18.417 45.697,34.249Z" style="fill:#00820d;"/><path d="M98.597,0c-4.792,11.492 -8.693,29.608 -8.715,49.263c-0.021,19.655 3.84,37.779 8.607,49.281c-15.934,-0.017 -28.845,-22.109 -28.815,-49.304c0.029,-27.194 12.99,-49.258 28.923,-49.24Z" style="fill:#00820d;"/><path d="M84.859,104.431c0,0 5.89,10.889 -3.247,19.583c-4.778,4.545 -12.347,4.357 -16.892,-0.42c-4.546,-4.778 -4.358,-12.347 0.42,-16.893c9.137,-8.694 19.719,-2.27 19.719,-2.27Z" style="fill:#bdbb0d;"/><path d="M85.015,104.21c0,-0 7.864,-10.262 19.839,-5.291c6.368,2.644 9.392,9.96 6.748,16.327c-2.643,6.368 -9.959,9.392 -16.327,6.749c-11.975,-4.971 -10.26,-17.785 -10.26,-17.785Z" style="fill:#6dd442;"/></g></svg>