<?xml version="1.0" encoding="UTF-8" standalone="no"?><!DOCTYPE svg PUBLIC "-//W3C//DTD SVG 1.1//EN" "http://www.w3.org/Graphics/SVG/1.1/DTD/svg11.dtd"><svg width="100%" height="100%" viewBox="0 0 6000 2464" version="1.1" xmlns="http://www.w3.org/2000/svg" xmlns:xlink="http://www.w3.org/1999/xlink" xml:space="preserve" xmlns:serif="http://www.serif.com/" style="fill-rule:evenodd;clip-rule:evenodd;stroke-linejoin:round;stroke-miterlimit:2;"><rect x="0" y="0" width="6000" height="2463.73" style="fill:#bababa;"/><clipPath id="_clip1"><rect x="0" y="0" width="6000" height="2463.73"/></clipPath><g clip-path="url(#_clip1)"><g><g><rect x="0" y="0" width="6000" height="892.777" style="fill:#8ecae6;"/><rect x="0" y="892.777" width="6000" height="641.566" style="fill:#219ebc;"/><rect x="0" y="1534.34" width="6000" height="523.651" style="fill:#126782;"/><rect x="0" y="2057.99" width="6000" height="405.735" style="fill:#023047;"/></g></g><g><circle cx="2296.73" cy="316.121" r="334.426" style="fill:#fb8500;"/><circle cx="2253.83" cy="269.097" r="270.681" style="fill:#ffb703;"/></g><g><path d="M4626.65,1679.32c2.345,-455.73 359.985,-824.968 800.163,-824.968c440.177,0 797.818,369.238 800.162,824.968l-1600.33,0Z" style="fill:#00820d;"/><clipPath id="_clip2"><path d="M4626.65,1679.32c2.345,-455.73 359.985,-824.968 800.163,-824.968c440.177,0 797.818,369.238 800.162,824.968l-1600.33,0Z"/></clipPath><g clip-path="url(#_clip2)"><path d="M5084.82,1510.49l-172.049,168.829l-258.713,-253.872l258.713,-253.872l172.049,168.829l172.049,-168.829l163.005,159.954l163.004,-159.954l178.99,175.64l178.99,-175.64l258.714,253.872l-258.714,253.872l-178.99,-175.64l-178.99,175.64l-163.004,-159.954l-163.005,159.954l-172.049,-168.829Z" style="fill:#d1d187;"/><rect x="4471.6" y="1425.45" width="2103.61" height="610.105" style="fill:#d1d187;"/><path d="M5046.14,1749.57l-191.509,210.078l-287.976,-315.898l287.976,-315.898l191.509,210.078l191.509,-210.078l181.442,199.034l181.441,-199.034l199.235,218.553l199.235,-218.553l287.976,315.898l-287.976,315.898l-199.235,-218.553l-199.235,218.553l-181.441,-199.034l-181.442,199.034l-191.509,-210.078Z" style="fill:#945e00;"/><clipPath id="_clip3"><path d="M5046.14,1749.57l-191.509,210.078l-287.976,-315.898l287.976,-315.898l191.509,210.078l191.509,-210.078l181.442,199.034l181.441,-199.034l199.235,218.553l199.235,-218.553l287.976,315.898l-287.976,315.898l-199.235,-218.553l-199.235,218.553l-181.441,-199.034l-181.442,199.034l-191.509,-210.078Z"/></clipPath><g clip-path="url(#_clip3)"><rect x="4626.65" y="1581.72" width="1600.33" height="299.315" style="fill:#945e00;"/></g></g><clipPath id="_clip4"><path d="M5084.64,177.973l273.995,703.07l-297.751,116.037l-273.996,-703.07l297.752,-116.037Z"/></clipPath><g clip-path="url(#_clip4)"><path d="M4935.77,235.991c19.925,123.987 70.168,312.061 146.374,507.606c76.207,195.545 166.475,368.021 235.7,472.795c-82.167,32.021 -234.476,-161.633 -339.912,-432.182c-105.437,-270.549 -124.329,-516.197 -42.162,-548.219Z" style="fill:#945e00;"/></g><path d="M4945.85,332.739c-56.921,2.044 -139.67,20.457 -221.402,57.934c-81.732,37.476 -149.681,88.164 -188.374,129.963c-30.381,-66.257 36.761,-162.146 149.842,-213.997c113.08,-51.852 229.553,-40.157 259.934,26.1Z" style="fill:#00820d;"/><path d="M4945.51,332.255c-42.745,-37.644 -115.499,-81.156 -200.62,-110.122c-85.12,-28.966 -169.313,-38.864 -226.148,-35.106c23.482,-69.004 138.161,-92.489 255.931,-52.412c117.769,40.076 194.319,128.636 170.837,197.64Z" style="fill:#00820d;"/><path d="M5264.74,14.093c-52.66,21.706 -123.845,67.74 -187.449,131.294c-63.603,63.555 -109.691,134.705 -131.438,187.348c-51.522,-51.561 -21.906,-164.811 66.093,-252.743c88,-87.932 201.273,-117.46 252.794,-65.899Z" style="fill:#00820d;"/><path d="M5393.76,383.619c-49.787,-27.666 -130.145,-54.667 -219.484,-64.82c-89.339,-10.154 -173.707,-1.876 -228.433,13.912c8.231,-72.423 115.266,-119.817 238.873,-105.768c123.606,14.048 217.276,84.253 209.044,156.676Z" style="fill:#00820d;"/><path d="M4969.78,-140.149c-21.925,52.569 -39.769,135.443 -39.868,225.357c-0.099,89.914 17.563,172.827 39.372,225.444c-72.89,-0.08 -131.956,-101.144 -131.819,-225.546c0.137,-124.402 59.425,-225.335 132.315,-225.255Z" style="fill:#00820d;"/></g><g transform="matrix(990.357,0,0,990.357,5777.91,1140.37)"></g><text x="2068.42px" y="1140.37px" style="font-family:'Pattaya-Regular', 'Pattaya';font-size:990.357px;fill:#fff;">ToryDory</text><g transform="matrix(8.18351,0,0,8.18351,-138.084,-1371.26)"><text x="280.675px" y="204.374px" style="font-family:'NotoSansJP-SemiBold', 'Noto Sans JP', sans-serif;font-weight:600;font-size:23.31px;fill:#023047;">T<tspan x="293.099px " y="204.374px ">o</tspan>Doリスト</text><text x="408.416px" y="204.374px" style="font-family:'MS-UIGothic', 'MS UI Gothic', sans-serif;font-size:23.31px;fill:#023047;">✕</text><g transform="matrix(23.3104,0,0,23.3104,548.278,204.374)"></g><text x="431.726px" y="204.374px" style="font-family:'NotoSansJP-SemiBold', 'Noto Sans JP', sans-serif;font-weight:600;font-size:23.31px;fill:#023047;">日記アプリ</text></g><g><path d="M2079.16,1148.37c-0,0 74.374,-97.046 187.625,-50.034c60.224,24.999 88.821,94.189 63.822,154.413c-25,60.223 -94.19,88.82 -154.413,63.821c-113.252,-47.012 -97.034,-168.2 -97.034,-168.2Z" style="fill:#6dd442;"/><path d="M2278.46,1120.81c32.283,22.673 43.426,62.535 24.867,88.959c-18.558,26.424 -59.835,29.469 -92.119,6.795c-32.283,-22.674 -43.426,-62.535 -24.868,-88.959c18.559,-26.424 59.836,-29.469 92.12,-6.795Z" style="fill:#565e00;"/><clipPath id="_clip5"><path d="M2278.46,1120.81c32.283,22.673 43.426,62.535 24.867,88.959c-18.558,26.424 -59.835,29.469 -92.119,6.795c-32.283,-22.674 -43.426,-62.535 -24.868,-88.959c18.559,-26.424 59.836,-29.469 92.12,-6.795Z"/></clipPath><g clip-path="url(#_clip5)"><rect x="2170.34" y="1164.12" width="149.735" height="72.452" style="fill:#8ecae6;"/></g><path d="M2378.32,1079.35l-87.865,121.482l-23.037,-16.662l87.865,-121.482l23.037,16.662Z" style="fill:#f55;"/><path d="M2452.14,1048.78l-84.817,39.658l-12.042,-25.754l84.817,-39.659l12.042,25.755Z" style="fill:#f55;"/></g><path d="M2061.79,1089.64c0,0 55.705,102.977 -30.71,185.199c-45.183,42.991 -116.769,41.211 -159.759,-3.972c-42.991,-45.183 -41.211,-116.768 3.972,-159.759c86.416,-82.222 186.497,-21.468 186.497,-21.468Z" style="fill:#bdbb0d;"/><g><path d="M5297.43,1572.92l-33.016,-299.795l-3020.72,484.385l5.646,51.267l3048.09,-235.857Z" style="fill:#fff;"/><path d="M5056.43,1893.98l-2.114,-305.622l-2845.48,178.584l0.319,46.182l2847.27,80.856Z" style="fill:#8ecae6;"/><path d="M4742.88,2133.39l24,-255.338l-2554.37,-107.096l-3.966,42.189l2534.34,320.245Z" style="fill:#219ebc;"/></g><g><g><g><path d="M1788.82,887.352l285.406,-136.161l-274.543,-19.198l0.002,-0.024l-1164.38,-81.422l-327.83,545.192l1452.68,101.581l28.669,-409.968Z" style="fill:#fff;"/></g><path d="M2562.3,1348.31l-2974.8,-205.558l710.049,538.381l1910.98,132.048l353.77,-464.871Z" style="fill:#fff;"/></g><path d="M357.677,1112.26l927.781,64.876l-51.284,-336.023l-684.675,-47.877l-191.822,319.024Z" style="fill:#8ecae6;"/></g><path d="M725.484,1286.84c192.851,-0 349.421,156.57 349.421,349.421c0,192.85 -156.57,349.42 -349.421,349.42c-192.85,0 -349.42,-156.57 -349.42,-349.42c-0,-192.851 156.57,-349.421 349.42,-349.421Zm0,217.512c-72.802,-0 -131.909,59.106 -131.909,131.909c0,72.802 59.107,131.909 131.909,131.909c72.803,-0 131.909,-59.107 131.909,-131.909c0,-72.803 -59.106,-131.909 -131.909,-131.909Z" style="fill:#fff;"/><clipPath id="_clip6"><path d="M725.484,1286.84c192.851,-0 349.421,156.57 349.421,349.421c0,192.85 -156.57,349.42 -349.421,349.42c-192.85,0 -349.42,-156.57 -349.42,-349.42c-0,-192.851 156.57,-349.421 349.42,-349.421Zm0,217.512c-72.802,-0 -131.909,59.106 -131.909,131.909c0,72.802 59.107,131.909 131.909,131.909c72.803,-0 131.909,-59.107 131.909,-131.909c0,-72.803 -59.106,-131.909 -131.909,-131.909Z"/></clipPath><g clip-path="url(#_clip6)"><g><path d="M1006.54,1917.32l-281.058,116.418l0,-290.812c29.435,-0 56.101,-11.949 75.408,-31.256l205.65,205.65Z" style="fill:#fff;"/><path d="M444.426,1355.2l281.058,-116.418l0,290.812c-29.434,-0 -56.1,11.948 -75.408,31.256l-205.65,-205.65Z" style="fill:#fff;"/><path d="M444.426,1917.32l-116.418,-281.058l290.812,-0c0,29.434 11.949,56.1 31.256,75.408l-205.65,205.65Z" style="fill:#fff;"/><path d="M1006.54,1355.2l116.418,281.058l-290.812,-0c0,-29.435 -11.948,-56.101 -31.256,-75.408l205.65,-205.65Z" style="fill:#fff;"/><path d="M328.008,1636.26l116.418,-281.058l205.65,205.65c-19.307,19.307 -31.256,45.973 -31.256,75.408l-290.812,-0Z" style="fill:#f00;"/><path d="M725.484,1238.79l281.058,116.418l-205.65,205.65c-19.307,-19.308 -45.973,-31.256 -75.408,-31.256l0,-290.812Z" style="fill:#f00;"/><path d="M1122.96,1636.26l-116.418,281.058l-205.65,-205.65c19.308,-19.308 31.256,-45.974 31.256,-75.408l290.812,-0Z" style="fill:#f00;"/><path d="M725.484,2033.74l-281.058,-116.418l205.65,-205.65c19.308,19.307 45.974,31.256 75.408,31.256l0,290.812Z" style="fill:#f00;"/></g></g></g></svg>