<?xml version="1.0" encoding="UTF-8" standalone="no"?>
<!DOCTYPE svg PUBLIC "-//W3C//DTD SVG 1.1//EN" "http://www.w3.org/Graphics/SVG/1.1/DTD/svg11.dtd">
<svg width="100%" height="100%" viewBox="0 0 950 390" version="1.1" xmlns="http://www.w3.org/2000/svg" xmlns:xlink="http://www.w3.org/1999/xlink" xml:space="preserve" xmlns:serif="http://www.serif.com/" style="fill-rule:evenodd;clip-rule:evenodd;stroke-linejoin:round;stroke-miterlimit:2;">
    <g transform="matrix(1,0,0,1,-65.274,-1373.26)">
        <g transform="matrix(1.06712,0,0,1.08618,-57.942,467.646)">
            <rect x="115.466" y="833.759" width="889.736" height="358.934" style="fill:rgb(186,186,186);"/>
            <clipPath id="_clip1">
                <rect x="115.466" y="833.759" width="889.736" height="358.934"/>
            </clipPath>
            <g clip-path="url(#_clip1)">
                <g transform="matrix(3.67614,0,0,1.76154,-253.02,-645.756)">
                    <g transform="matrix(0.751451,0,0,1.44947,-3.54532,-504.795)">
                        <rect x="138.11" y="927.711" width="322.083" height="50.94" style="fill:rgb(142,202,230);"/>
                    </g>
                    <g transform="matrix(0.751451,0,0,1.04162,-3.54532,-52.5865)">
                        <rect x="138.11" y="927.711" width="322.083" height="50.94" style="fill:rgb(33,158,188);"/>
                    </g>
                    <g transform="matrix(0.751451,0,0,0.850176,-3.54532,178.077)">
                        <rect x="138.11" y="927.711" width="322.083" height="50.94" style="fill:rgb(18,103,130);"/>
                    </g>
                    <g transform="matrix(0.751451,0,0,0.658734,-3.54532,398.988)">
                        <rect x="138.11" y="927.711" width="322.083" height="50.94" style="fill:rgb(2,48,71);"/>
                    </g>
                </g>
                <g id="Done" transform="matrix(3.98159,0,0,3.91171,-3561.37,-306.234)">
                    <g transform="matrix(0.369804,0,0,0.369804,859.222,-0.308639)">
                        <g transform="matrix(1.15251,0,0,1.15251,-89.5798,-171.566)">
                            <circle cx="299.484" cy="903.573" r="38.205" style="fill:rgb(255,183,3);"/>
                        </g>
                        <g transform="matrix(0.932825,0,0,0.932825,-18.1949,33.1841)">
                            <circle cx="299.484" cy="903.573" r="38.205" style="fill:rgb(251,133,0);"/>
                        </g>
                    </g>
                    <g transform="matrix(0.790963,0,0,0.790963,225.722,59.5337)">
                        <g transform="matrix(0.567548,0,0,0.567548,412.769,271.605)">
                            <g transform="matrix(1,1.95617e-16,-1.95617e-16,1,475.288,-904.797)">
                                <path d="M440.623,1088.39C440.84,1046.27 473.9,1012.13 514.589,1012.13C555.279,1012.13 588.339,1046.27 588.556,1088.39L440.623,1088.39Z" style="fill:rgb(0,130,13);"/>
                                <clipPath id="_clip2">
                                    <path d="M440.623,1088.39C440.84,1046.27 473.9,1012.13 514.589,1012.13C555.279,1012.13 588.339,1046.27 588.556,1088.39L440.623,1088.39Z"/>
                                </clipPath>
                                <g clip-path="url(#_clip2)">
                                    <g transform="matrix(1.03666,0,0,1.09308,-50.8749,-157.138)">
                                        <path d="M514.971,1125.19L499.629,1139.47L476.56,1118L499.629,1096.53L514.971,1110.81L530.312,1096.53L544.847,1110.06L559.383,1096.53L575.343,1111.38L591.304,1096.53L614.373,1118L591.304,1139.47L575.343,1124.61L559.383,1139.47L544.847,1125.94L530.312,1139.47L514.971,1125.19Z" style="fill:rgb(209,209,135);"/>
                                    </g>
                                    <g transform="matrix(1.02983,0,0,1.06787,-39.2072,-77.1273)">
                                        <rect x="452.013" y="1069.47" width="188.823" height="52.813" style="fill:rgb(209,209,135);"/>
                                    </g>
                                    <g transform="matrix(1.15392,0,0,1.36014,-114.833,-435.531)">
                                        <path d="M514.971,1125.19L499.629,1139.47L476.56,1118L499.629,1096.53L514.971,1110.81L530.312,1096.53L544.847,1110.06L559.383,1096.53L575.343,1111.38L591.304,1096.53L614.373,1118L591.304,1139.47L575.343,1124.61L559.383,1139.47L544.847,1125.94L530.312,1139.47L514.971,1125.19Z" style="fill:rgb(148,94,0);"/>
                                        <clipPath id="_clip3">
                                            <path d="M514.971,1125.19L499.629,1139.47L476.56,1118L499.629,1096.53L514.971,1110.81L530.312,1096.53L544.847,1110.06L559.383,1096.53L575.343,1111.38L591.304,1096.53L614.373,1118L591.304,1139.47L575.343,1124.61L559.383,1139.47L544.847,1125.94L530.312,1139.47L514.971,1125.19Z"/>
                                        </clipPath>
                                        <g clip-path="url(#_clip3)">
                                            <g transform="matrix(1.67554,0,0,0.794528,-1151.5,1009.24)">
                                                <rect x="974.531" y="131.581" width="76.513" height="25.603" style="fill:rgb(148,94,0);"/>
                                            </g>
                                        </g>
                                    </g>
                                </g>
                            </g>
                            <g transform="matrix(1.12727,-0.439311,0.847544,2.17479,-421.975,-1845.85)">
                                <clipPath id="_clip4">
                                    <rect x="471.093" y="969.447" width="24.416" height="29.884"/>
                                </clipPath>
                                <g clip-path="url(#_clip4)">
                                    <path d="M483.302,969.447C481.28,974.309 479.639,981.971 479.639,990.283C479.639,998.594 481.28,1006.26 483.302,1011.12C476.564,1011.12 471.093,1001.78 471.093,990.283C471.093,978.783 476.564,969.447 483.302,969.447Z" style="fill:rgb(148,94,0);"/>
                                </g>
                            </g>
                            <g transform="matrix(0.416805,0.908996,-0.908996,0.416805,1625.2,-784.269)">
                                <path d="M483.302,969.447C481.28,974.309 479.639,981.971 479.639,990.283C479.639,998.594 481.28,1006.26 483.302,1011.12C476.564,1011.12 471.093,1001.78 471.093,990.283C471.093,978.783 476.564,969.447 483.302,969.447Z" style="fill:rgb(0,130,13);"/>
                            </g>
                            <g transform="matrix(-0.322155,0.946687,-0.946687,-0.322155,2018.85,-86.1476)">
                                <path d="M483.302,969.447C481.28,974.309 479.639,981.971 479.639,990.283C479.639,998.594 481.28,1006.26 483.302,1011.12C476.564,1011.12 471.093,1001.78 471.093,990.283C471.093,978.783 476.564,969.447 483.302,969.447Z" style="fill:rgb(0,130,13);"/>
                            </g>
                            <g transform="matrix(0.706835,0.707379,-0.707379,0.706835,1319.05,-997.451)">
                                <path d="M483.302,969.447C481.28,974.309 479.639,981.971 479.639,990.283C479.639,998.594 481.28,1006.26 483.302,1011.12C476.564,1011.12 471.093,1001.78 471.093,990.283C471.093,978.783 476.564,969.447 483.302,969.447Z" style="fill:rgb(0,130,13);"/>
                            </g>
                            <g transform="matrix(-0.112928,0.993603,-0.993603,-0.112928,2004.65,-306.908)">
                                <path d="M483.302,969.447C481.28,974.309 479.639,981.971 479.639,990.283C479.639,998.594 481.28,1006.26 483.302,1011.12C476.564,1011.12 471.093,1001.78 471.093,990.283C471.093,978.783 476.564,969.447 483.302,969.447Z" style="fill:rgb(0,130,13);"/>
                            </g>
                            <g transform="matrix(0.999999,0.00110002,-0.00110002,0.999999,465.394,-954.571)">
                                <path d="M483.302,969.447C481.28,974.309 479.639,981.971 479.639,990.283C479.639,998.594 481.28,1006.26 483.302,1011.12C476.564,1011.12 471.093,1001.78 471.093,990.283C471.093,978.783 476.564,969.447 483.302,969.447Z" style="fill:rgb(0,130,13);"/>
                            </g>
                            <g transform="matrix(1.52028,1.59782,-1.51541,1.44188,-469.556,-1513.41)">
                                <path d="M957.802,29.533C957.802,29.533 960.093,30.188 960.093,32.737C960.093,34.07 959.066,35.153 957.802,35.153C956.537,35.153 955.511,34.07 955.511,32.737C955.511,30.188 957.802,29.533 957.802,29.533Z" style="fill:rgb(189,187,13);"/>
                            </g>
                            <g transform="matrix(0.88406,-2.1297,2.00056,0.830455,36.049,2074.78)">
                                <path d="M957.802,29.533C957.802,29.533 960.093,30.183 960.093,32.714C960.093,34.06 959.066,35.153 957.802,35.153C956.537,35.153 955.511,34.06 955.511,32.714C955.511,30.183 957.802,29.533 957.802,29.533Z" style="fill:rgb(109,212,66);"/>
                            </g>
                        </g>
                        <g transform="matrix(0.335504,0,0,0.335504,864.736,34.7085)">
                            <g transform="matrix(1.49843,0,0,1.49843,-100.876,-451.227)">
                                <g transform="matrix(0.824605,-0.057662,0.0324703,0.464348,50.0904,508.493)">
                                    <path d="M91.993,939.645L73.536,921.098L91.993,921.098L91.993,921.095L170.272,921.095L189.653,988.59L91.993,988.59L91.993,939.645Z" style="fill:white;"/>
                                </g>
                                <g transform="matrix(-1.68863,0.116684,-0.0276391,-0.399987,461.157,1338.36)">
                                    <path d="M189.653,988.59L91.993,988.59L116.408,921.095L179.144,921.095L189.653,988.59Z" style="fill:white;"/>
                                </g>
                            </g>
                            <g transform="matrix(2.22712,-0.155735,0.10654,1.52359,-315.388,-395.273)">
                                <path d="M210.902,921.095L176.297,921.095L179.073,903.058L204.61,903.058L210.902,921.095Z" style="fill:rgb(142,202,230);"/>
                            </g>
                        </g>
                    </g>
                </g>
            </g>
        </g>
    </g>
</svg>
