<?xml version="1.0" encoding="UTF-8" standalone="no"?>
<!DOCTYPE svg PUBLIC "-//W3C//DTD SVG 1.1//EN" "http://www.w3.org/Graphics/SVG/1.1/DTD/svg11.dtd">
<svg width="100%" height="100%" viewBox="0 0 68 57" version="1.1" xmlns="http://www.w3.org/2000/svg" xmlns:xlink="http://www.w3.org/1999/xlink" xml:space="preserve" xmlns:serif="http://www.serif.com/" style="fill-rule:evenodd;clip-rule:evenodd;stroke-linejoin:round;stroke-miterlimit:2;">
    <g transform="matrix(1,0,0,1,-261.395,-283.475)">
        <g id="ToDo" transform="matrix(0.884718,0,0,0.884718,62.2523,20.495)">
            <g transform="matrix(0.266889,0,0,0.266889,206.592,85.5088)">
                <g>
                    <g transform="matrix(1.49843,0,0,1.49843,-100.876,-451.227)">
                        <g transform="matrix(0.824605,-0.057662,0.0324703,0.464348,50.0904,508.269)">
                            <path d="M91.993,939.645L73.536,921.098L91.993,921.098L91.993,921.095L170.272,921.095L189.653,988.59L91.993,988.59L91.993,939.645Z" style="fill:white;"/>
                        </g>
                        <g transform="matrix(-1.68863,0.116684,-0.0276391,-0.399987,461.157,1338.13)">
                            <path d="M189.653,988.59L91.993,988.59L116.408,921.095L179.144,921.095L189.653,988.59Z" style="fill:white;"/>
                        </g>
                    </g>
                    <g transform="matrix(2.22712,-0.155735,0.10654,1.52359,-315.388,-395.61)">
                        <path d="M210.902,921.095L176.297,921.095L179.073,903.058L204.61,903.058L210.902,921.095Z" style="fill:rgb(142,202,230);"/>
                    </g>
                </g>
            </g>
            <g transform="matrix(0.369804,0,0,0.369804,190.898,-8.12756)">
                <g transform="matrix(1.15251,0,0,1.15251,-89.5798,-171.566)">
                    <circle cx="299.484" cy="903.573" r="38.205" style="fill:rgb(251,133,0);"/>
                </g>
                <g transform="matrix(0.932825,0,0,0.932825,-29.4375,20.7392)">
                    <circle cx="299.484" cy="903.573" r="38.205" style="fill:rgb(255,183,3);"/>
                </g>
                <g transform="matrix(0.932825,0,0,0.932825,-29.4375,20.7392)">
                    <circle cx="299.484" cy="903.573" r="38.205" style="fill:rgb(255,183,3);"/>
                </g>
            </g>
        </g>
    </g>
</svg>
